# xmcd CD database file
#
# Track frame offsets:
#	150
#	42051
#	91543
#	127343
#	155318
#	180441
#	206324
#	224402
#	244510
#	265108
#	282312
#	315087
#	335671
#
# Disc length: 4689 seconds
#
# Revision: 0
# Processed by: cddbd v1.5.2PL0 Copyright (c) Steve Scherf et al.
# Submitted via: CDex 1.51
#
DISCID=aa124f0d
DTITLE=Roy Eldridge - Three Classic Albums plus CD1
DYEAR=1954
DGENRE=Jazz
TTITLE0=I've Found a New Baby
TTITLE1=I Can't Get Started
TTITLE2=Trumpet Blues
TTITLE3=Algo Bueno
TTITLE4=Pretty Eyed Baby
TTITLE5=A Foggy day
TTITLE6=Blue Moon
TTITLE7=Stormy Weather
TTITLE8=Sweethearts On Parade
TTITLE9=If I Had You
TTITLE10=I Only have Eyes For You
TTITLE11=Sweet Georgia Brown
TTITLE12=The Song Is Ended
EXTD=YEAR: 1954
EXTT0=
EXTT1=
EXTT2=
EXTT3=
EXTT4=
EXTT5=
EXTT6=
EXTT7=
EXTT8=
EXTT9=
EXTT10=
EXTT11=
EXTT12=
PLAYORDER=
